<?xml version="1.0" encoding="iso-8859-1"?>

<!DOCTYPE svg PUBLIC "-//W3C//DTD SVG 1.1//EN" "http://www.w3.org/Graphics/SVG/1.1/DTD/svg11.dtd">
<!-- Uploaded to: SVG Repo, www.svgrepo.com, Generator: SVG Repo Mixer Tools -->
<svg version="1.1" id="_x34_" xmlns="http://www.w3.org/2000/svg" xmlns:xlink="http://www.w3.org/1999/xlink" 
	 viewBox="0 0 512 512"  xml:space="preserve">
<g>
	<g>
		<polygon style="fill:#FFFFFF;" points="45.665,466.982 46.051,466.597 45.665,466.597 		"/>
		<polygon style="fill:#5D6163;" points="46.051,466.597 51.792,460.855 45.665,460.855 45.665,466.597 		"/>
		<polygon style="fill:#5D6163;" points="26.756,460.855 21.015,466.597 40.415,466.597 40.415,460.855 		"/>
		<polygon style="fill:#5D6163;" points="113.39,466.597 113.39,490.216 117.939,490.216 117.939,466.597 183.673,466.597 
			183.673,490.216 188.22,490.216 188.22,466.597 253.954,466.597 253.954,490.216 258.504,490.216 258.504,466.597 
			324.236,466.597 324.236,490.216 328.785,490.216 328.785,466.597 375.752,466.597 375.752,460.855 51.792,460.855 
			46.051,466.597 		"/>
		<g>
			<g>
				<path style="fill:#8B795A;" d="M395.972,236.719c-6.408-3.168-32.47-26.782-63.572-56.444
					c-12.383-11.735-25.486-24.406-38.446-37.078c-2.664-2.592-5.255-5.183-7.919-7.703c-26.206-25.775-51.188-50.829-67.099-67.747
					l-7.632-8.568c0.216-0.216,0.432-0.503,0.576-0.72C222.392,44.997,227,30.886,224.84,19.438
					c-0.432-2.448-1.152-4.823-2.232-6.983c-2.088-4.247-5.255-7.488-9.216-9.647c-1.728-0.936-3.6-1.656-5.543-2.087
					c-0.288-0.072-0.576-0.072-0.936-0.072c-0.288,0-0.576,0-0.792,0.072c-8.784,0.215-15.983,4.679-19.655,12.383
					c-1.584,3.239-2.448,6.695-2.664,10.367c-0.144,1.584-0.144,3.167,0,4.823c0.648,8.928,4.608,18.791,11.591,28.439
					c0,0,0,0.072,0.072,0.072c0.504,0.864,1.08,1.513,1.728,2.304c0.216,0.288,0.432,0.576,0.72,0.937
					c-0.72,0.791-1.512,1.584-2.232,2.375l-0.072,0.071c-15.191,16.487-42.765,44.35-72.067,73.004
					c-2.592,2.591-5.184,5.183-7.847,7.703c-24.982,24.478-50.541,48.813-70.051,66.667c-1.8,1.728-3.6,3.312-5.256,4.824
					C26.35,227.433,16.199,236,12.815,237.511l4.176,9.792v0.071l1.224,2.736c3.456-1.439,11.375-7.703,22.175-17.135
					c1.656-1.512,3.456-3.024,5.256-4.608c23.47-20.95,57.74-53.78,89.562-85.17c2.664-2.592,5.255-5.183,7.848-7.703
					c25.126-24.911,48.021-48.165,61.771-62.923c0.72-0.793,1.44-1.513,2.088-2.304c13.463,14.543,37.438,38.95,63.859,65.228
					c2.592,2.52,5.184,5.111,7.847,7.703c15.263,15.047,31.102,30.454,46.077,44.781c29.518,28.078,55.58,51.765,66.883,59.684
					l4.392-10.151l0.288-0.648C396.188,236.792,396.116,236.792,395.972,236.719z M192.658,23.615l9.792-9.863
					c3.743,0.072,6.407,1.656,7.847,4.752c2.664,5.4,2.016,16.486-8.207,30.237C194.458,38.446,192.155,29.662,192.658,23.615z"/>
				<g>
					<path style="fill:none;" d="M218.94,67.745c-2.905-3.075-5.502-5.877-7.757-8.372c0.034-0.068,0.103-0.137,0.137-0.205
						L218.94,67.745z"/>
					<path style="fill:#FADF9F;" d="M203.107,50.081c1.684,2.162,4.447,5.334,8.063,9.297c0.055-0.068,0.103-0.129,0.156-0.195
						l-8.755-9.823C202.755,49.602,202.918,49.837,203.107,50.081z"/>
					<path style="fill:none;" d="M202.469,13.754l-9.842,9.842c0-0.308,0.034-0.615,0.103-0.889
						c0.034-0.376,0.068-0.752,0.171-1.094c0-0.137,0.034-0.273,0.068-0.376c0.103-0.478,0.239-0.957,0.376-1.367
						c0.171-0.512,0.342-0.957,0.547-1.367c1.538-3.178,4.306-4.818,8.201-4.818C202.229,13.685,202.332,13.754,202.469,13.754z"/>
					<path style="fill:#BCA36C;" d="M211.9,58.485c-0.171,0.205-0.376,0.444-0.581,0.683l-8.748-9.807
						c-0.171-0.205-0.308-0.41-0.478-0.615c10.217-13.737,10.867-24.843,8.235-30.242c-1.504-3.076-4.169-4.648-7.859-4.75
						l10.935-10.935c3.93,2.119,7.108,5.365,9.192,9.671C228.678,24.894,224.646,42.082,211.9,58.485z"/>
					<path style="fill:#FADF9F;" d="M202.09,69.619c-13.535,14.686-37.797,39.381-64.58,65.876
						c-2.592,2.591-5.183,5.183-7.776,7.703c-29.518,29.085-61.052,59.324-84.09,80.13c-1.8,1.656-3.6,3.239-5.256,4.751
						c-10.223,9.072-18.431,15.911-23.398,19.295c-1.512,1.008-2.736,1.729-3.6,2.088l-5.184-12.096l-0.216-0.504
						c0.072,0,0.144-0.072,0.216-0.072c3.96-1.944,15.983-12.24,32.182-27.142c1.728-1.512,3.456-3.096,5.256-4.752
						c18.647-17.278,41.829-39.453,64.58-61.699c2.664-2.592,5.256-5.112,7.847-7.703c31.03-30.382,60.26-59.972,74.947-76.099
						c0.72,0.864,1.584,1.944,2.592,3.095C197.41,64.507,199.57,66.884,202.09,69.619z"/>
					<path style="fill:#FADF9F;" d="M213.393,2.808L210.801,5.4l-8.351,8.352c-0.144,0-0.216-0.072-0.36-0.072
						c-3.888,0-6.696,1.656-8.207,4.824c-0.216,0.431-0.36,0.863-0.504,1.368c-0.144,0.432-0.288,0.864-0.432,1.367
						c0,0.072-0.072,0.216-0.072,0.36c-0.072,0.36-0.144,0.721-0.144,1.08c-0.072,0.287-0.072,0.576-0.072,0.936
						c-0.503,6.047,1.8,14.831,9.432,25.126l-18.287-20.447l-4.896-5.471c0.288-3.672,1.152-7.128,2.664-10.368
						C185.459,4.536,192.946,0,202.09,0c1.296,0,2.52,0.144,3.671,0.36c0.72,0.072,1.44,0.216,2.088,0.36
						C209.793,1.152,211.665,1.872,213.393,2.808z"/>
					<path style="fill:#FADF9F;" d="M202.09,48.741v0.072c-0.36,0.432-0.648,0.864-1.008,1.295
						c-1.296,1.656-3.168,3.888-5.616,6.696c-0.792,0.792-1.584,1.656-2.448,2.592c-0.216-0.36-0.504-0.648-0.72-0.936
						c-9.503-12.168-14.111-24.838-13.391-35.637l4.896,5.471L202.09,48.741z"/>
					<path style="fill:#FADF9F;" d="M396.225,236.863l-4.613,10.764l-0.752,1.811c-16.949-7.21-143.284-131.153-186.033-176.875
						c-0.957-1.025-1.879-2.016-2.734-2.939c4.032-4.374,7.142-7.86,9.09-10.252c2.256,2.494,4.852,5.297,7.757,8.372
						C264.525,115.929,382.966,230.952,396.225,236.863z"/>
					<path style="fill:#FADF9F;" d="M202.063,48.789l0.509,0.571c-0.16-0.211-0.311-0.419-0.467-0.628
						C202.091,48.751,202.076,48.77,202.063,48.789z"/>
					<path style="fill:#FADF9F;" d="M203.107,50.081c-0.189-0.243-0.352-0.479-0.536-0.72l-0.509-0.571
						c-0.321,0.431-0.621,0.856-0.961,1.292c-1.684,2.162-4.447,5.334-8.063,9.297c1.934,2.38,5.028,5.867,9.066,10.238
						c4.037-4.372,7.132-7.858,9.065-10.238C207.555,55.415,204.791,52.242,203.107,50.081z"/>
				</g>
			</g>
			<path style="fill:#463E2E;" d="M383.849,135.476h-6.678l-7.704,7.704h26.501v361.117H8.351l-2.055,2.054
				C9.957,509.843,14.902,512,20.36,512h363.489c11.262,0,20.392-9.129,20.392-20.392V155.867
				C404.241,144.605,395.111,135.476,383.849,135.476z"/>
			<path style="fill:#655B49;" d="M377.181,135.495l-7.703,7.703H8.207v361.127h0.144l-2.088,2.016
				C2.376,502.669,0,497.414,0,491.582V155.869c0-11.231,9.071-20.374,20.374-20.374H377.181z"/>
			<polygon style="fill:#EAEAEA;" points="170.255,343.736 268.165,277.927 276.913,290.941 289.899,282.141 308.723,309.912 
				352.628,280.155 368.499,303.571 312.886,341.264 304.951,329.555 293.242,337.491 273.528,308.405 174.342,375.072 
				166.452,363.334 154.744,371.269 149.344,363.303 51.792,460.855 375.752,460.855 375.752,466.597 328.785,466.597 
				328.785,490.216 324.236,490.216 324.236,466.597 258.504,466.597 258.504,490.216 253.954,490.216 253.954,466.597 
				188.22,466.597 188.22,490.216 183.673,490.216 183.673,466.597 117.939,466.597 117.939,490.216 113.39,490.216 113.39,466.597 
				46.051,466.597 45.665,466.982 45.665,488.312 40.415,493.563 40.415,472.232 8.351,504.296 395.969,504.296 395.969,143.18 
				369.468,143.18 169.712,342.935 			"/>
			<polygon style="fill:#FFFFFF;" points="8.24,504.296 8.351,504.296 40.415,472.232 40.415,466.597 21.015,466.597 
				26.756,460.855 40.415,460.855 40.415,405.809 17.938,405.809 17.938,401.691 40.415,401.691 40.415,338.928 17.938,338.928 
				17.938,334.812 40.415,334.812 40.415,272.049 17.938,272.049 17.938,267.931 40.415,267.931 40.415,205.169 17.938,205.169 
				17.938,201.051 40.415,201.051 40.415,156.358 45.665,156.358 45.665,460.855 51.792,460.855 149.344,363.303 127.225,330.668 
				80.932,362.043 65.061,338.627 124.919,298.058 132.773,309.647 142.625,302.97 169.712,342.935 369.468,143.18 8.24,143.18 			
				"/>
			<polygon style="fill:#40484F;" points="132.773,309.647 124.919,298.058 65.061,338.627 80.932,362.043 127.225,330.668 
				119.208,318.841 			"/>
			<polygon style="fill:#B7667F;" points="158.563,351.595 166.155,346.492 169.712,342.935 142.625,302.97 132.773,309.647 
				140.79,321.474 127.225,330.668 149.344,363.303 159.563,353.085 			"/>
			<polygon style="fill:#B7667F;" points="166.452,363.334 159.563,353.085 149.344,363.303 154.744,371.269 			"/>
			<polygon style="fill:#B7667F;" points="170.255,343.736 169.712,342.935 166.155,346.492 			"/>
			
				<rect x="121.806" y="313.013" transform="matrix(0.8278 -0.561 0.561 0.8278 -157.234 128.0697)" style="fill:#B7667F;" width="16.387" height="14.288"/>
			<polygon style="fill:#40484F;" points="166.452,363.334 174.342,375.072 273.528,308.405 266.483,298.011 276.913,290.941 
				268.165,277.927 170.255,343.736 178.16,355.398 			"/>
			<polygon style="fill:#40484F;" points="158.563,351.595 159.563,353.085 166.155,346.492 			"/>
			<polygon style="fill:#40484F;" points="159.563,353.085 166.452,363.334 178.16,355.398 170.255,343.736 166.155,346.492 			"/>
			<polygon style="fill:#B7667F;" points="273.528,308.405 293.242,337.491 304.951,329.555 297.015,317.848 308.723,309.912 
				289.899,282.141 276.913,290.941 283.944,301.403 			"/>
			<polygon style="fill:#B7667F;" points="273.528,308.405 283.944,301.403 276.913,290.941 266.483,298.011 			"/>
			<polygon style="fill:#40484F;" points="304.951,329.555 312.886,341.264 368.499,303.571 352.628,280.155 308.723,309.912 
				316.659,321.621 			"/>
			
				<rect x="299.765" y="312.662" transform="matrix(-0.8278 0.561 -0.561 -0.8278 740.2142 412.2678)" style="fill:#40484F;" width="14.143" height="14.144"/>
			<polygon style="fill:#5D6163;" points="45.665,156.358 40.415,156.358 40.415,201.051 17.938,201.051 17.938,205.169 
				40.415,205.169 40.415,267.931 17.938,267.931 17.938,272.049 40.415,272.049 40.415,334.812 17.938,334.812 17.938,338.928 
				40.415,338.928 40.415,401.691 17.938,401.691 17.938,405.809 40.415,405.809 40.415,460.855 45.665,460.855 			"/>
		</g>
		<polygon style="fill:#5D6163;" points="45.665,488.312 45.665,466.982 40.415,472.232 40.415,493.563 		"/>
		<polygon style="fill:#5D6163;" points="45.665,466.597 40.415,466.597 40.415,472.232 45.665,466.982 		"/>
		<rect x="40.415" y="460.855" style="fill:#5D6163;" width="5.25" height="5.741"/>
	</g>
	<g>
		<g>
			<path style="fill:#FEF8FB;" d="M259.634,437.45h-29.064v-6.163l5.273-5.324c7.851-7.679,12.585-12.666,12.585-17.82
				c0-3.25-2.098-5.942-6.473-5.942c-3.056,0-6.052,1.458-8.149,2.859l-2.757-7.173c2.816-1.904,7.791-3.641,13.004-3.641
				c10.248,0,14.862,5.882,14.862,13c0,7.452-5.274,13.281-10.847,18.435l-3.835,3.42v0.112h15.402V437.45z"/>
			<path style="fill:#FEF8FB;" d="M264.979,416.269c0-11.993,4.735-22.022,15.642-22.022c11.744,0,15.281,11.15,15.281,21.74
				c0,13.9-5.753,22.079-15.462,22.079C268.814,438.066,264.979,426.97,264.979,416.269z M285.354,416.156
				c0-9.134-1.499-14.066-4.793-14.066c-3.116,0-5.036,4.372-5.036,14.066c0,9.695,1.74,14.066,5.036,14.066
				C283.078,430.223,285.354,427.755,285.354,416.156z"/>
			<path style="fill:#FEF8FB;" d="M312.332,437.45v-33.848h-0.118l-7.851,3.756l-2.336-7.118l11.684-5.378h8.929v42.588H312.332z"/>
			<path style="fill:#FEF8FB;" d="M335.716,394.862h29.006v6.163l-16.419,36.425h-10.789l16.422-34.294v-0.112h-18.219V394.862z"/>
		</g>
		<g>
			<circle style="fill:#40484F;" cx="93.908" cy="188.03" r="14.725"/>
			<circle style="fill:#B7667F;" cx="141.851" cy="188.03" r="14.726"/>
		</g>
	</g>
</g>
</svg>