<?xml version="1.0" encoding="iso-8859-1"?>
<!-- Uploaded to: SVG Repo, www.svgrepo.com, Generator: SVG Repo Mixer Tools -->
<svg version="1.1" id="Layer_1" xmlns="http://www.w3.org/2000/svg" xmlns:xlink="http://www.w3.org/1999/xlink" 
	 viewBox="0 0 512 512" xml:space="preserve">
<path style="fill:#FBB03B;" d="M7.861,132.063v104.058c0,48.629,39.421,88.05,88.05,88.05h320.18c48.629,0,88.05,39.421,88.05,88.05
	l0,0V308.163c0-48.629-39.421-88.05-88.05-88.05H87.906"/>
<circle style="fill:#A65A53;" cx="95.911" cy="132.06" r="88.051"/>
<circle style="fill:#FFFFFF;" cx="95.911" cy="132.06" r="16.009"/>
<g>
	<path style="fill:#BF9484;" d="M183.941,132.063v88.048h-80.026C103.915,220.111,183.941,200.73,183.941,132.063z"/>
	<path style="fill:#BF9484;" d="M487.319,356.135c-10.106,9.901-23.946,15.95-39.211,15.95h-168.79v96.425h168.79
		c30.945,0,56.031-25.243,56.031-56.189"/>
</g>
<rect x="280.01" y="372.201" style="fill:#FFFFFF;" width="48.027" height="96.058"/>
<path d="M95.91,155.933c-13.162,0-23.869-10.708-23.869-23.869s10.708-23.869,23.869-23.869s23.869,10.707,23.869,23.869
	S109.071,155.933,95.91,155.933z M95.91,123.916c-4.493,0-8.148,3.655-8.148,8.148c0,4.493,3.655,8.148,8.148,8.148
	c4.493,0,8.148-3.656,8.148-8.148C104.058,127.57,100.404,123.916,95.91,123.916z"/>
<g>
	<path style="fill:#FFFFFF;" d="M63.748,132.071H48.027c0-26.202,21.672-47.891,47.874-47.891v15.721
		C78.083,99.902,63.748,114.253,63.748,132.071z"/>
	<path style="fill:#FFFFFF;" d="M95.901,203.96v-15.721c31.443,0,56.184-24.725,56.184-56.168h15.721
		C167.807,171.899,135.729,203.96,95.901,203.96z"/>
</g>
<rect x="296.088" y="403.528" width="15.721" height="32.491"/>
<path d="M416.09,212.252H191.802c0,0,0.019-79.62,0.019-80.189c0-52.885-43.025-95.91-95.91-95.91S0,79.179,0,132.063v104.058
	c0,52.885,43.025,95.91,95.91,95.91H416.09c22.614,0,43.056,9.423,57.647,24.533c-7.515,4.639-16.329,7.135-25.629,7.135H270.933
	v112.146h177.175c35.128,0,63.718-28.136,63.885-63.626H512l0,0V308.162C512,255.277,468.975,212.252,416.09,212.252z M95.91,51.875
	c44.217,0,80.189,35.973,80.189,80.189s-35.972,80.189-80.189,80.189s-80.189-35.973-80.189-80.189S51.693,51.875,95.91,51.875z
	 M175.433,185.628l-0.331,26.625h-26.639C159.114,205.247,168.298,196.185,175.433,185.628z M462.735,276.708v51.735
	c-4.666-2.609-9.571-4.835-14.673-6.644v-29.37H432.34v25.268c-5.285-0.906-10.712-1.388-16.251-1.388h-0.519v-39.601h-15.721
	v39.602h-16.77V292.43h-15.721v23.881h-15.721v-64.757h-15.721v64.757h-14.673V292.43h-15.721v23.881h-18.866v-39.602h-15.721
	v39.602H256.26V292.43h-15.721v23.881h-17.818v-64.757h-15.721v64.757h-14.673V292.43h-15.721v23.881h-15.721v-39.602h-15.721
	v39.602h-18.866V292.43h-15.721v23.881H95.91c-0.003,0-0.006,0-0.009,0v-64.757H80.179v63.198c-5.46-1.09-10.72-2.733-15.721-4.875
	v-25.832H48.737v16.865c-2.956-2.158-5.754-4.515-8.385-7.047v-42.309H24.63v21.231c-5.68-10.997-8.909-23.456-8.909-36.664v-51.505
	c17.158,26.092,46.693,43.357,80.189,43.357H416.09c44.217,0,80.189,35.973,80.189,80.189v51.492
	c-4.969-7.555-10.982-14.362-17.822-20.23v-62.716H462.735z M286.655,379.422h9.433v9.433h15.721v-9.433h8.385v80.704h-8.385v-7.337
	h-15.721v7.337h-9.433V379.422z M472.168,453.57v-17.55h-15.721v23.356c-2.71,0.483-5.494,0.75-8.339,0.75h-8.431V419.25h-15.721
	v40.876h-15.721v-24.106h-15.721v24.106h-16.77v-63.934h-15.721v63.934h-24.106v-80.704h112.193
	c12.901,0,25.138-3.662,35.447-10.462c8.012,12.45,12.689,27.239,12.72,43.106C496.218,429.564,486.524,445.164,472.168,453.57z"/>
<g>
	<path style="fill:#FFFFFF;" d="M39.734,132.071H24.013c0-39.828,32.06-71.905,71.888-71.905v15.721
		C64.458,75.889,39.734,100.628,39.734,132.071z"/>
	<path style="fill:#FFFFFF;" d="M95.901,179.947v-15.721c17.818,0,32.17-14.337,32.17-32.155h15.721
		C143.793,158.273,122.103,179.947,95.901,179.947z"/>
</g>
</svg>