<?xml version="1.0" encoding="iso-8859-1"?>
<!-- Uploaded to: SVG Repo, www.svgrepo.com, Generator: SVG Repo Mixer Tools -->
<svg fill="#000000" height="800px" width="800px" version="1.1" id="Layer_1" xmlns="http://www.w3.org/2000/svg" xmlns:xlink="http://www.w3.org/1999/xlink" 
	 viewBox="0 0 512 512" xml:space="preserve">
<g>
	<g>
		<g>
			<path d="M53.465,153.626c-5.633,0-10.199,4.566-10.199,10.199v184.351c0,5.633,4.566,10.199,10.199,10.199
				c55.412,0,100.494-45.081,100.494-100.494v-3.761C153.959,198.707,108.878,153.626,53.465,153.626z M133.561,257.881
				c0,40.709-30.531,74.423-69.896,79.449V174.671c39.365,5.026,69.896,38.74,69.896,79.449V257.881z"/>
			<path d="M358.041,257.881c0,55.412,45.081,100.494,100.494,100.494c5.633,0,10.199-4.566,10.199-10.199V163.825
				c0-5.633-4.566-10.199-10.199-10.199c-55.412,0-100.494,45.081-100.494,100.494V257.881z M378.439,254.119
				c0-40.709,30.531-74.423,69.896-79.449V337.33c-39.365-5.026-69.896-38.74-69.896-79.449V254.119z"/>
			<path d="M256,203.162c-29.135,0-52.838,23.703-52.838,52.838s23.703,52.838,52.838,52.838c29.135,0,52.838-23.703,52.838-52.838
				S285.135,203.162,256,203.162z M256,288.44c-17.887,0-32.44-14.552-32.44-32.44c0-17.887,14.552-32.44,32.44-32.44
				c17.887,0,32.44,14.552,32.44,32.44C288.44,273.887,273.887,288.44,256,288.44z"/>
			<path d="M509.013,135.921L376.079,2.987C374.167,1.075,371.572,0,368.867,0H143.133c-2.705,0-5.299,1.075-7.212,2.987
				L2.987,135.921C1.075,137.833,0,140.428,0,143.133v225.735c0,2.705,1.075,5.3,2.987,7.212l132.933,132.933
				c1.912,1.912,4.507,2.987,7.212,2.987h225.735c2.705,0,5.3-1.075,7.212-2.987l132.933-132.933
				c1.912-1.912,2.987-4.507,2.987-7.212V143.133C512,140.428,510.925,137.833,509.013,135.921z M491.602,364.643L364.643,491.602
				H147.357L20.398,364.643V147.357L147.357,20.398h217.286l126.959,126.959V364.643z"/>
		</g>
	</g>
</g>
<g>
	<g>
		<path d="M190.618,47.936c-1.423,0-2.586,0.517-3.49,1.293l-15.253,11.634c-2.068,1.293-3.232,3.749-3.232,6.076
			c0,3.362,2.197,6.722,5.429,6.722c0.904,0,2.067-0.259,3.102-1.164l4.137-4.137h0.001v69.03c0,3.489,4.136,5.299,8.402,5.299
			c4.136,0,8.402-1.809,8.402-5.299V53.365C198.115,50.005,194.108,47.936,190.618,47.936z"/>
	</g>
</g>
<g>
	<g>
		<path d="M241.678,48.195c-17.064,0-30.25,8.015-30.25,29.603v36.065c0,21.589,13.187,29.604,30.25,29.604
			c17.063,0,30.378-8.015,30.378-29.603V77.799C272.057,56.21,258.743,48.195,241.678,48.195z M255.25,113.865
			c0,10.212-5.171,14.866-13.573,14.866c-8.533,0-13.445-4.654-13.445-14.866V77.799c0-10.212,4.912-14.866,13.445-14.866
			c8.402,0,13.573,4.654,13.573,14.866V113.865z"/>
	</g>
</g>
<g>
	<g>
		<path d="M314.196,48.195c-17.064,0-30.25,8.015-30.25,29.603v36.065c0,21.589,13.187,29.604,30.25,29.604
			s30.378-8.015,30.378-29.603V77.799C344.574,56.21,331.26,48.195,314.196,48.195z M327.769,113.865
			c0,10.212-5.171,14.866-13.573,14.866c-8.533,0-13.445-4.654-13.445-14.866V77.799c0-10.212,4.912-14.866,13.445-14.866
			c8.402,0,13.573,4.654,13.573,14.866V113.865z"/>
	</g>
</g>
<g>
	<g>
		<path d="M190.619,368.191c-1.423,0-2.586,0.517-3.491,1.293l-15.253,11.634c-2.068,1.293-3.232,3.749-3.232,6.076
			c0,3.362,2.197,6.722,5.429,6.722c0.904,0,2.067-0.258,3.102-1.164l4.137-4.137h0.002v69.03c0,3.49,4.136,5.3,8.402,5.3
			c4.136,0,8.402-1.81,8.402-5.3V373.62C198.116,370.26,194.109,368.191,190.619,368.191z"/>
	</g>
</g>
<g>
	<g>
		<path d="M241.678,368.449c-17.064,0-30.25,8.015-30.25,29.603v36.066c0,21.589,13.187,29.603,30.25,29.603
			c17.063,0,30.378-8.015,30.378-29.603v-36.066C272.057,376.464,258.743,368.449,241.678,368.449z M255.25,434.12
			c0,10.212-5.171,14.866-13.573,14.866c-8.533,0-13.445-4.654-13.445-14.866v-36.066c0-10.212,4.912-14.866,13.445-14.866
			c8.402,0,13.573,4.654,13.573,14.866V434.12z"/>
	</g>
</g>
<g>
	<g>
		<path d="M314.196,368.449c-17.064,0-30.25,8.015-30.25,29.603v36.066c0,21.589,13.187,29.603,30.25,29.603
			s30.378-8.015,30.378-29.603v-36.066C344.574,376.464,331.26,368.449,314.196,368.449z M327.769,434.12
			c0,10.212-5.171,14.866-13.573,14.866c-8.533,0-13.445-4.654-13.445-14.866v-36.066c0-10.212,4.912-14.866,13.445-14.866
			c8.402,0,13.573,4.654,13.573,14.866V434.12z"/>
	</g>
</g>
<g>
	<g>
		<path d="M325.156,284.958c-4.849-2.866-11.104-1.26-13.97,3.589c-11.491,19.437-32.637,31.51-55.186,31.51
			c-35.321,0-64.057-28.736-64.057-64.057s28.736-64.057,64.057-64.057c5.633,0,10.199-4.566,10.199-10.199
			c0-5.633-4.566-10.199-10.199-10.199c-46.57,0-84.456,37.886-84.456,84.456S209.43,340.456,256,340.456
			c29.727,0,57.601-15.912,72.745-41.528C331.612,294.079,330.004,287.824,325.156,284.958z"/>
	</g>
</g>
<g>
	<g>
		<path d="M330.256,245.801c-5.633,0-10.199,4.566-10.199,10.199c0,1.76-0.071,3.541-0.214,5.291
			c-0.458,5.614,3.723,10.536,9.337,10.993c0.281,0.023,0.562,0.035,0.839,0.035c5.258,0,9.72-4.039,10.153-9.372
			c0.188-2.299,0.282-4.635,0.282-6.947C340.456,250.367,335.889,245.801,330.256,245.801z"/>
	</g>
</g>
</svg>